<svg id="Layer_1" data-name="Layer 1" xmlns="http://www.w3.org/2000/svg" width="150" height="504" viewBox="0 0 150 504"><defs><style>.cls-1,.cls-2,.cls-7{fill:#002e77;}.cls-1,.cls-2,.cls-3,.cls-6,.cls-7,.cls-8,.cls-9{stroke:#000;}.cls-1,.cls-3,.cls-6,.cls-8{stroke-linecap:round;}.cls-1,.cls-3,.cls-9{stroke-linejoin:round;}.cls-1,.cls-2,.cls-3,.cls-6,.cls-7,.cls-9{stroke-width:2px;}.cls-2,.cls-6,.cls-7,.cls-8{stroke-miterlimit:10;}.cls-3,.cls-6,.cls-9{fill:none;}.cls-4{fill:#fff;}.cls-5{fill:red;}.cls-7,.cls-9{stroke-linecap:square;}</style></defs><rect class="cls-1" x="18" y="255" width="49.5" height="222"/><rect class="cls-1" x="83" y="255" width="49.5" height="223"/><rect class="cls-2" x="3.5" y="3.5" width="143" height="252" rx="16.81"/><polyline class="cls-3" points="47 4 30 23 34 29 26 33 75 124"/><polyline class="cls-3" points="103 4 120 23 116 29 124 33 75 124"/><polygon class="cls-4" points="49.84 21.18 75.83 3.81 99.52 20.73 75.44 122.42 49.84 21.18"/><path class="cls-5" d="M77,41.77a34,34,0,0,0-.85,10.54,3.6,3.6,0,0,0,1.27-1.42,1.23,1.23,0,0,0-.6-1.61c-.71-.22-1.36.49-1.65,1.17a5.18,5.18,0,0,0,.06,4,1.89,1.89,0,0,0,.87,1,.85.85,0,0,0,1.14-.41"/><path class="cls-5" d="M64.2,58.29a27.84,27.84,0,0,0-1.08,5,5.4,5.4,0,0,0,.33,3.19c.86,1.64,2.94,2.11,4.77,2.41a11,11,0,0,0,3.43.2,3.77,3.77,0,0,0,2.82-1.77,4.43,4.43,0,0,0,.18-3.11,6.12,6.12,0,0,0-2.07-3.53,8.67,8.67,0,0,0-4.18-1.36L65,58.78"/><path class="cls-5" d="M62.76,57.89a27.91,27.91,0,0,0-1,4.52,8.24,8.24,0,0,0,.19,4.24c1,2.52,3.68,3.28,6.12,3.67a10.93,10.93,0,0,0,4.52.06A5.1,5.1,0,0,0,75.76,68c1.35-2.45.25-6.06-1.58-8a7.53,7.53,0,0,0-4.09-2c-1.56-.3-3.15-.47-4.72-.7a1.55,1.55,0,0,0-1.84,1.05,1.51,1.51,0,0,0,1,1.84l3.6.52a10.23,10.23,0,0,1,2.87.7,4.7,4.7,0,0,1,2.28,4.5,1.72,1.72,0,0,1-1.07,1.39,5.54,5.54,0,0,1-3,.17,16.36,16.36,0,0,1-2.86-.61,2.83,2.83,0,0,1-1.58-1.08,4.69,4.69,0,0,1-.15-2.93,27.13,27.13,0,0,1,1-4.19,1.53,1.53,0,0,0-1.05-1.85,1.52,1.52,0,0,0-1.84,1Z"/><path class="cls-5" d="M75.06,18A19.48,19.48,0,0,1,74,28.14l1.26-8.48.29,1.65.68-2.47q3.24,12.5,6.23,25.05,1.47,6.18,2.88,12.39c.9,3.93,2.58,8,1.94,12.13-.74,4.71-2.51,9.48-3.73,14.1-.73,2.76-1.8,5.91-4.48,6.88a5.77,5.77,0,0,1-4.7-.56,13,13,0,0,1-3.6-3.25,36.49,36.49,0,0,1-8.06-18.92"/><path class="cls-5" d="M73.61,18.43a18.48,18.48,0,0,1-1.1,9.31l2.9.8,1.26-8.48H73.78l.28,1.65c.27,1.51,2.53,1.35,2.9,0l.68-2.47h-2.9Q77.46,29.7,80,40.18C81.63,47,83.1,53.87,84.9,60.66a19.53,19.53,0,0,1,.46,9.63c-.74,3.4-1.84,6.69-2.8,10-.66,2.3-1.07,5.45-3,7.08-2.5,2.07-5.51-.34-7.19-2.25a34.71,34.71,0,0,1-8.15-18.49c-.23-1.89-3.23-1.92-3,0a38.48,38.48,0,0,0,7.48,18.7c1.94,2.55,4.27,5.17,7.59,5.7a6.76,6.76,0,0,0,7.14-3.83c1.51-2.84,2.1-6.23,3-9.28,1.06-3.52,2.33-7.22,2.48-10.91s-1.17-7.2-2-10.72c-.91-3.79-1.75-7.61-2.65-11.4q-3.14-13.28-6.56-26.47a1.51,1.51,0,0,0-2.9,0l-.68,2.46H77l-.29-1.65c-.24-1.42-2.68-1.45-2.89,0l-1.27,8.48a1.51,1.51,0,0,0,2.9.8A21.55,21.55,0,0,0,76.5,17.63c-.27-1.9-3.16-1.09-2.89.8Z"/><path class="cls-5" d="M81.69,85.05a114,114,0,0,1-5.41,25.36l-9-32.58c-1,4.82.9,9.71,2.78,14.26.3.73.81,1.59,1.59,1.48,1-.13,1-1.51.84-2.48a116.22,116.22,0,0,1-2.31-19.32"/><path class="cls-5" d="M80.19,85.05a114.4,114.4,0,0,1-5.35,25h2.89l-9-32.57c-.37-1.36-2.6-1.51-2.89,0-.75,4,.06,7.84,1.42,11.58.58,1.6,1.1,3.76,2.26,5a2.53,2.53,0,0,0,3.73.29c1-1,.91-2.42.7-3.67-.36-2.08-.8-4.14-1.11-6.23a114.6,114.6,0,0,1-1.15-12.69c-.07-1.92-3.07-1.93-3,0A120.18,120.18,0,0,0,70.8,90.3c.11.52.13,1.14.28,1.64.09.28-.31.69.27.23s.21-.38,0-.9c-.59-1.36-1.11-2.75-1.58-4.15a17.77,17.77,0,0,1-1-8.89H65.83l9,32.58a1.51,1.51,0,0,0,2.89,0,118.09,118.09,0,0,0,5.46-25.76c.18-1.92-2.82-1.91-3,0Z"/><path class="cls-5" d="M64.59,58.93l8.08-32.39c.52-2.09,1.09-4.27,2.53-5.87a107.47,107.47,0,0,1-1.89,22.78c-1,5.11-2.35,10.21-2.39,15.42-.09,10.7,5.39,20.88,5.2,31.58"/><path class="cls-5" d="M66,59.33l4.88-19.58,2.41-9.67c.68-2.72,1-6.13,2.93-8.34L73.7,20.67a109.31,109.31,0,0,1-.64,14.59c-.54,4.75-1.56,9.39-2.48,14.07A45,45,0,0,0,69.64,63,94.49,94.49,0,0,0,72.27,75.7c1.24,4.84,2.4,9.72,2.35,14.75a1.5,1.5,0,0,0,3,0c.09-8.82-3.37-17.06-4.74-25.66-1.49-9.37,1.73-18.38,2.94-27.59a108.7,108.7,0,0,0,.88-16.53c0-1.2-1.68-2.09-2.56-1.06-2,2.29-2.57,5.14-3.28,8L68.27,38,63.15,58.53c-.47,1.88,2.42,2.68,2.89.8Z"/><path class="cls-5" d="M68.47,89.39a261,261,0,0,1,6.84,27"/><path class="cls-5" d="M67,89.79a264.28,264.28,0,0,1,6.84,27c.38,1.89,3.27,1.09,2.9-.8a267,267,0,0,0-6.85-27c-.57-1.84-3.46-1-2.89.8Z"/><path class="cls-5" d="M75.13,119.9a1.5,1.5,0,0,0,0-3,1.5,1.5,0,0,0,0,3Z"/><path class="cls-5" d="M75.84,114.2a1.5,1.5,0,0,0,0-3,1.5,1.5,0,0,0,0,3Z"/><path class="cls-5" d="M76.27,112.92a1.5,1.5,0,0,0,0-3,1.5,1.5,0,0,0,0,3Z"/><path class="cls-5" d="M75,17.51c-1.26-2.81-4.14-4.47-6.84-5.94a21.8,21.8,0,0,1,7.14-5.23l8.2,4.75A20.4,20.4,0,0,0,76.6,18"/><path class="cls-5" d="M76.24,16.76c-1.44-3.09-4.5-4.91-7.37-6.49l.3,2.36a21.46,21.46,0,0,1,6.83-5H74.49l8.2,4.76V9.8a22.28,22.28,0,0,0-7.39,7.44c-1,1.65,1.59,3.16,2.59,1.51a19.28,19.28,0,0,1,6.31-6.36,1.51,1.51,0,0,0,0-2.59L79.58,7.11,77.2,5.73c-1-.56-1.7-1.14-2.82-.63a23,23,0,0,0-7.33,5.4,1.52,1.52,0,0,0,.3,2.36c2.45,1.34,5.07,2.77,6.3,5.41a1.5,1.5,0,0,0,2.59-1.51Z"/><polyline class="cls-3" points="85.91 11.52 78 18 89.14 64.14"/><polyline class="cls-3" points="65.22 11.52 73.14 18 61 65"/><polyline class="cls-6" points="50.84 20.99 75.83 3.81 99.52 20.73"/><polygon class="cls-3" points="75 124 104 4 46 4 75 124"/><path class="cls-7" d="M146,155l.54,97c-.07,2.39-2.63,4.57-4.93,5.69l-26.3,12.76c-9,5.43-17.26,4.37-20.67-3.45L80.08,233.61A120.61,120.61,0,0,1,70,188.38L70.12,139"/><path class="cls-7" d="M3.43,163.16l-.54,88c.07,2.39,2.43,4.57,4.55,5.69l24.28,12.76C40,275,47.65,273.94,50.8,266.12l13.43-33.35a129.07,129.07,0,0,0,9.31-45.23L75,124"/><circle class="cls-8" cx="65.1" cy="125.78" r="2.72"/><circle class="cls-8" cx="65.1" cy="153.78" r="2.72"/><circle class="cls-8" cx="65.1" cy="183.78" r="2.72"/><path class="cls-4" d="M110.7,76.5l-2.3,4a1,1,0,0,0,.86,1.5h4.62a1,1,0,0,0,.86-1.5l-2.3-4A1,1,0,0,0,110.7,76.5Z"/><path class="cls-4" d="M115.7,76.5l-2.3,4a1,1,0,0,0,.86,1.5h4.62a1,1,0,0,0,.86-1.5l-2.3-4A1,1,0,0,0,115.7,76.5Z"/><polygon class="cls-2" points="106.5 81.5 106.5 84.17 106.5 95.5 114.5 103.5 122 95 122 84.42 122 81.5 106.5 81.5"/><line class="cls-9" x1="107" y1="85" x2="122" y2="85"/><path d="M19.47,503.39a23.27,23.27,0,0,1,46.53,0"/><path d="M83.47,503.39a23.27,23.27,0,0,1,46.53,0"/></svg>