<svg id="Layer_1" data-name="Layer 1" xmlns="http://www.w3.org/2000/svg" width="224" height="527" viewBox="0 0 224 527"><defs><style>.cls-1{fill:#fff4c7;}.cls-1,.cls-2,.cls-3,.cls-4,.cls-5,.cls-6{stroke:#000;stroke-linecap:round;}.cls-1,.cls-2,.cls-3,.cls-4,.cls-5{stroke-linejoin:round;stroke-width:2px;}.cls-2{fill:#fff;}.cls-3{fill:#002e77;}.cls-5{fill:none;}.cls-6{stroke-miterlimit:10;}</style></defs><polygon class="cls-1" points="62 218 82 240 101 222 84 205 62 218"/><polygon class="cls-1" points="137.61 206.26 130 220 138 242 143 240 162 220 137.61 206.26"/><rect class="cls-2" x="58" y="207" width="31" height="8" transform="translate(-95.65 65.02) rotate(-30)"/><rect class="cls-2" x="135" y="208" width="31" height="8" transform="translate(126.16 -46.85) rotate(30)"/><path class="cls-3" d="M183.15,13.53l-.44-1.11A17.74,17.74,0,0,0,168.17,1.3,17.77,17.77,0,0,1,183.15,13.53Z"/><path class="cls-3" d="M155.74,1.19h10.45c.25,0,.5,0,.75,0s.38,0,.57,0l.66.06a17.74,17.74,0,0,1,14.54,11.12l.44,1.11,38.37,96.89a17.64,17.64,0,0,1,1,9.14v0a17.77,17.77,0,0,1-2.24,6.61l-52.7,91.29-30.78-17.77,48.52-84-31.25-79"/><path class="cls-3" d="M68.51,36.73,38.67,115.34l48.72,84.38L56.61,217.49,5.31,128.62a17.74,17.74,0,0,1-3-17.69l37-97.52a17.6,17.6,0,0,1,6.3-8.16l.09-.07a17.65,17.65,0,0,1,11.21-4H68.75"/><circle class="cls-1" cx="127.5" cy="234.5" r="18"/><rect class="cls-4" x="108.25" y="216" width="9" height="62"/><circle class="cls-1" cx="96.5" cy="234.5" r="18"/><line class="cls-5" x1="112.75" y1="278" x2="112.75" y2="511"/><rect class="cls-4" x="99" y="512" width="27" height="5" transform="translate(180.77 -7.71) rotate(19.78)"/><circle class="cls-6" cx="166.33" cy="206.93" r="2.72"/><circle class="cls-6" cx="59.33" cy="206.93" r="2.72"/></svg>