<svg id="Layer_1" data-name="Layer 1" xmlns="http://www.w3.org/2000/svg" width="203.78" height="504" viewBox="0 0 203.78 504"><defs><style>.cls-1,.cls-2,.cls-7{fill:#002e77;}.cls-1,.cls-2,.cls-3,.cls-6,.cls-7,.cls-8{stroke:#000;}.cls-1,.cls-3,.cls-6,.cls-8{stroke-linecap:round;}.cls-1,.cls-3{stroke-linejoin:round;}.cls-1,.cls-2,.cls-3,.cls-6,.cls-7{stroke-width:2px;}.cls-2,.cls-6,.cls-7,.cls-8{stroke-miterlimit:10;}.cls-3,.cls-6{fill:none;}.cls-4{fill:#fff;}.cls-5{fill:red;}.cls-7{stroke-linecap:square;}</style></defs><rect class="cls-1" x="24.41" y="255" width="71.59" height="223"/><rect class="cls-1" x="107" y="255" width="70.93" height="223"/><rect class="cls-2" x="3.72" y="3.5" width="194.23" height="252" rx="16.81"/><polyline class="cls-3" points="62.8 4 39.71 23 45.14 29 34.28 33 100.83 124"/><polyline class="cls-3" points="138.87 4 161.96 23 156.52 29 167.39 33 100.83 124"/><polygon class="cls-4" points="66.66 21.18 101.96 3.81 134.14 20.73 101.44 122.42 66.66 21.18"/><path class="cls-5" d="M103.58,41.77a25.25,25.25,0,0,0-1.15,10.54,4.25,4.25,0,0,0,1.72-1.42,1.12,1.12,0,0,0-.82-1.61,2.18,2.18,0,0,0-2.23,1.17,3.93,3.93,0,0,0,.07,4,2.2,2.2,0,0,0,1.18,1c.57.18,1.37,0,1.56-.41Z"/><path class="cls-5" d="M86.17,58.29a21.11,21.11,0,0,0-1.47,5,4.19,4.19,0,0,0,.44,3.19c1.17,1.64,4,2.11,6.49,2.41a20.14,20.14,0,0,0,4.65.2,5.53,5.53,0,0,0,3.83-1.77,3.39,3.39,0,0,0,.25-3.11,6.12,6.12,0,0,0-2.81-3.53,14.87,14.87,0,0,0-5.68-1.36l-4.65-.49"/><path class="cls-5" d="M84.87,57.53a22.91,22.91,0,0,0-1.59,5.17,5.78,5.78,0,0,0,.8,4.79c1.85,2.34,5.39,2.6,8.13,2.92,3.06.35,7.37.5,9.27-2.49,1.78-2.8-.31-6.68-2.74-8.32A12.06,12.06,0,0,0,93.51,58c-2.09-.27-4.2-.46-6.29-.68a1.5,1.5,0,0,0-1.5,1.5,1.54,1.54,0,0,0,1.5,1.5,48.65,48.65,0,0,1,8.15,1.08c1.87.53,3.79,2.12,3.75,4.27,0,1-1,1.44-1.84,1.69a10.72,10.72,0,0,1-3.91.21,34.14,34.14,0,0,1-3.48-.45,8.06,8.06,0,0,1-2.92-1c-.94-.62-1-1.55-.8-2.61a19.58,19.58,0,0,1,1.29-4.45A1.56,1.56,0,0,0,86.93,57a1.52,1.52,0,0,0-2.06.54Z"/><path class="cls-5" d="M100.91,18a14.76,14.76,0,0,1-1.49,10.11l1.72-8.48.39,1.65.92-2.47q4.39,12.5,8.46,25.05,2,6.18,3.92,12.39c1.21,3.93,3.49,8,2.62,12.13-1,4.71-3.39,9.48-5.06,14.1-1,2.76-2.44,5.91-6.09,6.88a10.34,10.34,0,0,1-6.38-.56A17,17,0,0,1,95,85.58c-6-5.36-9.86-12-10.94-18.92"/><path class="cls-5" d="M99.47,18.43a13.61,13.61,0,0,1-1.35,9l2.75,1.15,1.71-8.48H99.69l.39,1.65c.37,1.56,2.41,1.29,2.89,0l.93-2.47H101q3.9,11.09,7.55,22.26,1.8,5.51,3.54,11c1.09,3.47,2.43,6.87,3.45,10.35a11.51,11.51,0,0,1,.55,4.69,27.05,27.05,0,0,1-1.63,5.58c-1.17,3.2-2.51,6.34-3.73,9.53-.94,2.47-2.45,4.79-5.22,5.35-3.39.69-6.64-1.09-9.12-3.25A31.72,31.72,0,0,1,85.53,66.26c-.31-1.9-3.2-1.1-2.89.8a33.67,33.67,0,0,0,9.9,18.24c2.55,2.52,5.5,4.9,9.1,5.61,3.33.65,6.89,0,9.24-2.6,2.14-2.34,3-5.49,4.1-8.36,1.48-3.69,3.25-7.42,4-11.36s-.76-7.35-2-10.87c-1.42-3.92-2.53-8-3.81-11.94q-4.41-13.72-9.19-27.33a1.52,1.52,0,0,0-2.9,0l-.92,2.46H103l-.39-1.65a1.51,1.51,0,0,0-2.89,0L98,27.74c-.32,1.58,1.92,2.76,2.74,1.16a17,17,0,0,0,1.65-11.27c-.38-1.89-3.27-1.09-2.89.8Z"/><path class="cls-5" d="M99.4,21.22,100,18.5a12.57,12.57,0,0,1-1.48,4,8.87,8.87,0,0,1,5.19-.52c-.18-1-.41-2.06-.69-3.07a3.06,3.06,0,0,0-.67-1.39,4.87,4.87,0,0,0-1.35-.78c-1.35-.69-2.4-2-3.89-2.32A2.75,2.75,0,0,1,99,15.83a10.78,10.78,0,0,1-4.32-2.43"/><path class="cls-5" d="M100.84,21.61l.63-2.71-2.89-.8a10.82,10.82,0,0,1-1.33,3.66,1.5,1.5,0,0,0,.12,1.66A1.47,1.47,0,0,0,99,24a10.13,10.13,0,0,1,1.21-.41c.21-.05.42-.1.63-.13l.32-.06c-.11,0-.11,0,0,0a9.63,9.63,0,0,1,1.2,0c.21,0,.43,0,.64.05-.14,0-.11,0,.08,0l.31.05a1.53,1.53,0,0,0,1.85-1.84,31.54,31.54,0,0,0-.73-3.2,3.94,3.94,0,0,0-2.09-2.66,13.89,13.89,0,0,1-2.25-1.41A6.83,6.83,0,0,0,97.54,13l-.8,2.89c.07,0,.57.19.28.06,0,0,.43.24.31.16s.21.19.25.24.12.13,0,0a1.76,1.76,0,0,1,.14.23l1.69-2.2a7.85,7.85,0,0,1-1.94-.82c-.33-.19-.65-.39-1-.61l-.24-.18c.1.08.08.07-.06,0l-.45-.4a1.5,1.5,0,0,0-2.13,2.12,13.1,13.1,0,0,0,5,2.82,1.51,1.51,0,0,0,1.69-2.2A4.26,4.26,0,0,0,97.54,13a1.5,1.5,0,0,0-.8,2.89L97,16s.37.13.2.06.11.05.13.07l.24.13a11,11,0,0,1,1,.66,12,12,0,0,0,2,1.33c.17.08.35.16.51.25s.26.16.15.08.17.17,0,0a1.16,1.16,0,0,1,.14.24c.06.09.08.18,0,0,.08.21.14.42.2.63.27,1,.49,2,.66,3l1.85-1.85a10.47,10.47,0,0,0-6,.52l1.69,2.2a13.75,13.75,0,0,0,1.63-4.37,1.5,1.5,0,1,0-2.89-.8L98,20.82a1.5,1.5,0,0,0,2.89.79Z"/><path class="cls-5" d="M90.57,12.44a1.5,1.5,0,0,0,0-3,1.5,1.5,0,0,0,0,3Z"/><path class="cls-5" d="M113.64,12.52a1.5,1.5,0,0,0,0-3,1.5,1.5,0,0,0,0,3Z"/><path class="cls-5" d="M109.91,85.05a88.78,88.78,0,0,1-7.33,25.36L90.34,77.83c-1.36,4.82,1.24,9.71,3.78,14.26a2.36,2.36,0,0,0,2.16,1.48c1.33-.13,1.42-1.51,1.14-2.48a86.45,86.45,0,0,1-3.13-19.32"/><path class="cls-5" d="M108.41,85.05a88,88,0,0,1-7.13,24.6L104,110,91.79,77.44a1.51,1.51,0,0,0-2.89,0c-1,3.92.09,7.75,1.77,11.32,1.13,2.4,3.37,8.11,7,5.87a3.38,3.38,0,0,0,1.22-3.69c-.41-2-1.06-4-1.48-6.09a84.61,84.61,0,0,1-1.66-13.08c-.1-1.92-3.1-1.93-3,0a104.45,104.45,0,0,0,3.12,19.49c0,.2.09.4.14.61s-.15.42,0,.29-.11,0-.2-.18-.28-.33-.41-.52a33.32,33.32,0,0,1-2.23-4.22c-1.33-2.81-2.27-5.91-1.47-9H88.9l12.23,32.58c.4,1.07,2.16,1.65,2.74.36a93,93,0,0,0,7.54-26.12c.11-.81-.76-1.49-1.5-1.5a1.54,1.54,0,0,0-1.5,1.5Z"/><path class="cls-5" d="M86.7,58.93l11-32.39c.7-2.09,1.48-4.27,3.43-5.87a79.65,79.65,0,0,1-2.56,22.78c-1.34,5.11-3.19,10.21-3.25,15.42-.12,10.7,7.32,20.88,7.06,31.58"/><path class="cls-5" d="M88.14,59.33,94.9,39.38l3.34-9.86c.94-2.77,1.62-5.8,3.92-7.78L99.6,20.67a78.44,78.44,0,0,1-1,15.08c-.81,4.94-2.3,9.68-3.54,14.52a32.65,32.65,0,0,0-.91,13.44,75.55,75.55,0,0,0,3.65,12.54c1.58,4.59,3.09,9.28,3,14.2,0,1.93,3,1.93,3,0,.13-8.84-4.35-16.71-6.29-25.14A28.39,28.39,0,0,1,97.77,52c1.17-4.84,2.73-9.56,3.6-14.48a81.71,81.71,0,0,0,1.23-16.82A1.52,1.52,0,0,0,100,19.61c-2.27,2-3.2,4.71-4.14,7.47L92.33,37.64,85.25,58.53c-.62,1.84,2.28,2.62,2.89.8Z"/><path class="cls-5" d="M83.39,62.21A91.25,91.25,0,0,0,86,71.53L96.3,104.25"/><path class="cls-5" d="M81.94,62.61c1.49,7.11,4.08,14,6.26,20.94l6.66,21.1c.58,1.84,3.47,1,2.89-.8l-6.66-21.1c-2.18-6.91-4.77-13.83-6.25-20.94-.4-1.88-3.29-1.09-2.9.8Z"/><path class="cls-5" d="M96.58,104.54a21.88,21.88,0,0,0,.53,6.6,6.39,6.39,0,0,1,.84,1.62,7,7,0,0,1,1,3.42,20.91,20.91,0,0,0,1.88,3.11q1.76-8,3.34-16.1Z"/><path class="cls-5" d="M95.08,104.54a22.06,22.06,0,0,0,.11,4.22c.09.73.2,1.46.34,2.19a8.76,8.76,0,0,0,.85,1.9,14.77,14.77,0,0,1,.74,1.68,13,13,0,0,1,.33,1.85,10.54,10.54,0,0,0,2,3.66c.7,1,2.45,1,2.75-.35q1.74-8,3.33-16.1a1.52,1.52,0,0,0-1.84-1.85l-7.55,1.35A1.5,1.5,0,1,0,97,106l7.56-1.34-1.85-1.85q-1.59,8.07-3.34,16.1l2.74-.36a21.73,21.73,0,0,1-1.87-3.11l.2.76a9.28,9.28,0,0,0-.59-3c-.37-.91-.88-1.74-1.28-2.62a9,9,0,0,1-.46-2.74,23,23,0,0,1,0-3.32,1.51,1.51,0,0,0-1.5-1.5A1.53,1.53,0,0,0,95.08,104.54Z"/><path class="cls-5" d="M110.51,91.22a9.28,9.28,0,0,1,1.13-6.1"/><path class="cls-5" d="M112,90.82c0-.17,0-.14,0,.08l0-.21c0-.1,0-.21,0-.31a6.1,6.1,0,0,1,0-.74,6,6,0,0,1,0-.73,1.49,1.49,0,0,1,0-.21c0-.17,0-.14,0,.08a.91.91,0,0,1,.06-.36A8.51,8.51,0,0,1,112.4,87a1.05,1.05,0,0,1,.13-.35c-.09.2-.1.22,0,.07a.61.61,0,0,1,.07-.14,7.67,7.67,0,0,1,.36-.7,1.5,1.5,0,1,0-2.59-1.52,11,11,0,0,0-1.27,7.25,1.5,1.5,0,0,0,1.84,1,1.54,1.54,0,0,0,1-1.84Z"/><path class="cls-5" d="M118.88,66.26a1.5,1.5,0,0,0,0-3,1.5,1.5,0,0,0,0,3Z"/><path class="cls-5" d="M92,89.39a207.79,207.79,0,0,1,9.3,27"/><path class="cls-5" d="M90.51,89.79a211.06,211.06,0,0,1,9.3,27,1.5,1.5,0,0,0,2.89-.8,211.59,211.59,0,0,0-9.3-27,1.54,1.54,0,0,0-1.84-1,1.5,1.5,0,0,0-1,1.84Z"/><path class="cls-5" d="M101,119.9a1.5,1.5,0,0,0,0-3,1.5,1.5,0,0,0,0,3Z"/><path class="cls-5" d="M102,114.2a1.5,1.5,0,0,0,0-3,1.5,1.5,0,0,0,0,3Z"/><path class="cls-5" d="M102.56,112.92a1.5,1.5,0,0,0,0-3,1.5,1.5,0,0,0,0,3Z"/><path class="cls-5" d="M100.76,17.51c-1.71-2.81-5.62-4.47-9.28-5.94a30.77,30.77,0,0,1,9.69-5.23l11.14,4.75A25.43,25.43,0,0,0,103,18"/><path class="cls-5" d="M102.06,16.76c-2.26-3.54-6.46-5.14-10.19-6.64l.67,2.51a29.3,29.3,0,0,1,9-4.84l-1.16-.16,11.14,4.76V9.8a26.65,26.65,0,0,0-9.61,7.13c-1.22,1.48.89,3.62,2.12,2.13a24.81,24.81,0,0,1,9-6.67,1.5,1.5,0,0,0,0-2.59l-6.12-2.62-3-1.26c-.93-.4-2.17-1.23-3.2-1A15.74,15.74,0,0,0,98,6c-.89.38-1.76.79-2.62,1.25a32,32,0,0,0-5,3.29c-1,.79-.25,2.14.67,2.51,2.92,1.18,6.6,2.47,8.39,5.26,1,1.62,3.63.12,2.59-1.51Z"/><polyline class="cls-3" points="115.66 11.52 104.91 18 120.03 64.14"/><polyline class="cls-3" points="87.55 11.52 98.3 18 81.82 65"/><polyline class="cls-6" points="68.01 20.99 101.96 3.81 134.14 20.73"/><polygon class="cls-3" points="100.83 124 140.22 4 61.44 4 100.83 124"/><path class="cls-7" d="M197.27,155l.73,97c-.1,2.39-3.56,4.57-6.69,5.69l-35.73,12.76c-12.18,5.43-23.44,4.37-28.08-3.45l-19.76-33.35c-8.53-14.4-13.17-29.72-13.7-45.23L94.2,139"/><path class="cls-7" d="M3.62,163.16l-.73,88c.09,2.39,3.29,4.57,6.18,5.69l33,12.76C53.29,275,63.68,273.94,68,266.12l18.25-33.35a100.63,100.63,0,0,0,12.64-45.23l2-63.54"/><circle class="cls-8" cx="87.39" cy="125.78" r="4.5"/><circle class="cls-8" cx="87" cy="149" r="4.5"/><circle class="cls-8" cx="87" cy="171" r="4.5"/><path d="M28.41,503.39c0-12.84,14.15-23.26,31.6-23.26s31.6,10.42,31.6,23.26"/><path d="M110.34,503.39c0-12.84,14.15-23.26,31.6-23.26s31.6,10.42,31.6,23.26"/></svg>